<svg width="16.000000" height="16.000000" viewBox="0 0 16 16" fill="none" xmlns="http://www.w3.org/2000/svg" xmlns:xlink="http://www.w3.org/1999/xlink">
	<desc>
			Created with Pixso.
	</desc>
	<defs>
		<clipPath id="clip0_700">
			<rect id="fi_927667" rx="0.000000" width="15.000000" height="15.000000" transform="translate(0.500000 0.500000)" fill="white" fill-opacity="0"/>
		</clipPath>
	</defs>
	<rect id="fi_927667" rx="0.000000" width="15.000000" height="15.000000" transform="translate(0.500000 0.500000)" fill="#FFFFFF" fill-opacity="0"/>
	<g clip-path="url(#clip0_700)">
		<path id="Vector" d="M8 0C4.74 0 2.08 2.65 2.08 5.91C2.08 6.98 2.57 8.13 2.59 8.18C2.74 8.55 3.05 9.12 3.27 9.46L7.32 15.6C7.49 15.85 7.73 16 8 16C8.26 16 8.5 15.85 8.67 15.6L12.72 9.46C12.94 9.12 13.25 8.55 13.4 8.18C13.42 8.13 13.91 6.98 13.91 5.91C13.91 2.65 11.25 0 8 0ZM12.76 7.91C12.62 8.24 12.34 8.77 12.14 9.08L8.09 15.22C8.01 15.34 7.98 15.34 7.9 15.22L3.85 9.08C3.65 8.77 3.37 8.24 3.23 7.91C3.22 7.9 2.78 6.83 2.78 5.91C2.78 3.03 5.12 0.69 8 0.69C10.87 0.69 13.21 3.03 13.21 5.91C13.21 6.84 12.77 7.9 12.76 7.91Z" fill="#000000" fill-opacity="1.000000" fill-rule="nonzero"/>
		<path id="Vector" d="M8 2.78C6.27 2.78 4.87 4.18 4.87 5.91C4.87 7.63 6.27 9.03 8 9.03C9.72 9.03 11.12 7.63 11.12 5.91C11.12 4.18 9.72 2.78 8 2.78ZM8 8.34C6.65 8.34 5.56 7.25 5.56 5.91C5.56 4.56 6.65 3.47 8 3.47C9.34 3.47 10.43 4.56 10.43 5.91C10.43 7.25 9.34 8.34 8 8.34Z" fill="#000000" fill-opacity="1.000000" fill-rule="nonzero"/>
	</g>
</svg>
