<svg width="16.000000" height="16.000000" viewBox="0 0 16 16" fill="none" xmlns="http://www.w3.org/2000/svg" xmlns:xlink="http://www.w3.org/1999/xlink">
	<desc>
			Created with Pixso.
	</desc>
	<defs>
		<clipPath id="clip0_694">
			<rect id="Layer_1" rx="0.000000" width="15.000000" height="15.000000" transform="translate(0.500000 0.500000)" fill="white" fill-opacity="0"/>
		</clipPath>
	</defs>
	<rect id="Layer_1" rx="0.000000" width="15.000000" height="15.000000" transform="translate(0.500000 0.500000)" fill="#FFFFFF" fill-opacity="0"/>
	<g clip-path="url(#clip0_694)">
		<path id="Vector" d="M14.2 6.92C14.68 6.55 15 5.98 15 5.33C15 4.23 14.1 3.33 13 3.33C11.89 3.33 11 4.23 11 5.33C11 5.98 11.31 6.56 11.79 6.92C11.74 6.94 11.69 6.96 11.64 6.99C11.48 7.07 11.41 7.28 11.5 7.44C11.58 7.6 11.78 7.67 11.95 7.58C12.26 7.42 12.63 7.33 13 7.33C14.28 7.33 15.33 8.38 15.33 9.66L15.33 11C15.33 11.55 14.88 12 14.33 12L12.64 12C12.46 12 12.31 12.14 12.31 12.33C12.31 12.51 12.46 12.66 12.64 12.66L14.33 12.66C15.25 12.66 16 11.91 16 11L16 9.66C16 8.44 15.26 7.38 14.2 6.92ZM11.66 5.33C11.66 4.59 12.26 4 13 4C13.73 4 14.33 4.59 14.33 5.33C14.33 6.06 13.73 6.66 13 6.66C12.26 6.66 11.66 6.06 11.66 5.33Z" fill="#000000" fill-opacity="1.000000" fill-rule="nonzero"/>
		<path id="Vector" d="M4.49 7.44C4.58 7.28 4.51 7.07 4.35 6.99C4.3 6.96 4.25 6.94 4.2 6.92C4.68 6.56 5 5.98 5 5.33C5 4.23 4.1 3.33 3 3.33C1.89 3.33 1 4.23 1 5.33C1 5.98 1.31 6.55 1.79 6.92C0.73 7.38 0 8.44 0 9.66L0 11C0 11.91 0.74 12.66 1.66 12.66L3.35 12.66C3.53 12.66 3.68 12.51 3.68 12.33C3.68 12.14 3.53 12 3.35 12L1.66 12C1.11 12 0.66 11.55 0.66 11L0.66 9.66C0.66 8.38 1.71 7.33 3 7.33C3.36 7.33 3.73 7.42 4.04 7.58C4.21 7.67 4.41 7.6 4.49 7.44ZM1.66 5.33C1.66 4.59 2.26 4 3 4C3.73 4 4.33 4.59 4.33 5.33C4.33 6.06 3.73 6.66 3 6.66C2.26 6.66 1.66 6.06 1.66 5.33Z" fill="#000000" fill-opacity="1.000000" fill-rule="nonzero"/>
		<path id="Vector" d="M9.32 6.58C9.93 6.16 10.33 5.46 10.33 4.66C10.33 3.38 9.28 2.33 8 2.33C6.71 2.33 5.66 3.38 5.66 4.66C5.66 5.46 6.06 6.16 6.67 6.58C5.3 7.11 4.33 8.44 4.33 10L4.33 12C4.33 12.91 5.08 13.66 6 13.66L10 13.66C10.91 13.66 11.66 12.91 11.66 12L11.66 10C11.66 8.44 10.69 7.11 9.32 6.58ZM6.33 4.66C6.33 3.74 7.08 3 8 3C8.91 3 9.66 3.74 9.66 4.66C9.66 5.58 8.91 6.33 8 6.33C7.08 6.33 6.33 5.58 6.33 4.66ZM11 12C11 12.55 10.55 13 10 13L6 13C5.44 13 5 12.55 5 12L5 10C5 8.34 6.34 7 8 7C9.65 7 11 8.34 11 10L11 12Z" fill="#000000" fill-opacity="1.000000" fill-rule="nonzero"/>
	</g>
</svg>
