<svg width="16.000023" height="15.999926" viewBox="0 0 16 15.9999" fill="none" xmlns="http://www.w3.org/2000/svg" xmlns:xlink="http://www.w3.org/1999/xlink">
	<desc>
			Created with Pixso.
	</desc>
	<defs/>
	<path id="Vector" d="M0.03 15.85C0.07 15.94 0.16 16 0.26 15.99L3.73 15.99C3.88 15.99 3.99 15.88 3.99 15.73L3.99 14.93L11.99 14.93L11.99 15.73C11.99 15.88 12.11 15.99 12.26 15.99L15.73 15.99C15.83 15.99 15.92 15.94 15.96 15.85C16.01 15.77 16 15.66 15.95 15.58L14.98 14.13L15.95 12.68C16 12.59 16.01 12.49 15.96 12.4C15.92 12.32 15.83 12.26 15.73 12.26L13.06 12.26L13.06 11.46C13.06 11.31 12.94 11.19 12.79 11.19L9.63 11.19C9.27 10.84 9.06 10.36 9.06 9.86L9.06 8.38C9.75 8.19 10.38 7.81 10.88 7.29C13.11 6.72 14.67 4.7 14.66 2.39L14.66 1.86C14.66 1.13 13.94 0.53 13.06 0.53C12.68 0.52 12.3 0.64 11.99 0.87L11.99 0.26C11.99 0.11 11.88 0 11.73 0L4.26 0C4.11 0 3.99 0.11 3.99 0.26L3.99 0.87C3.69 0.64 3.31 0.52 2.93 0.53C2.05 0.53 1.33 1.13 1.33 1.86L1.33 2.39C1.32 4.7 2.88 6.72 5.11 7.29C5.61 7.81 6.24 8.19 6.93 8.38L6.93 9.86C6.93 10.36 6.72 10.84 6.36 11.19L3.19 11.19C3.05 11.19 2.93 11.31 2.93 11.46L2.93 12.26L0.26 12.26C0.16 12.26 0.07 12.32 0.03 12.4C-0.02 12.49 -0.01 12.59 0.04 12.68L1.01 14.13L0.04 15.58C-0.01 15.66 -0.02 15.77 0.03 15.85ZM15.23 12.79L14.44 13.98C14.38 14.07 14.38 14.19 14.44 14.28L15.23 15.46L12.53 15.46L12.53 14.93L12.79 14.93C12.94 14.93 13.06 14.81 13.06 14.66L13.06 12.79L15.23 12.79ZM13.06 1.06C13.65 1.06 14.13 1.42 14.13 1.86L14.13 2.39C14.14 4.18 13.09 5.81 11.45 6.53C11.81 5.92 11.99 5.23 11.99 4.53L11.99 3.31C12.16 3.41 12.34 3.46 12.53 3.46C13.12 3.46 13.59 2.98 13.59 2.39C13.59 2.25 13.48 2.13 13.33 2.13C13.18 2.13 13.06 2.25 13.06 2.39C13.06 2.69 12.82 2.93 12.53 2.93C12.23 2.93 11.99 2.69 11.99 2.39L11.99 1.86C11.99 1.42 12.47 1.06 13.06 1.06ZM1.86 2.39L1.86 1.86C1.86 1.42 2.34 1.06 2.93 1.06C3.52 1.06 3.99 1.42 3.99 1.86L3.99 2.39C3.99 2.69 3.76 2.93 3.46 2.93C3.17 2.93 2.93 2.69 2.93 2.39C2.93 2.25 2.81 2.13 2.66 2.13C2.51 2.13 2.39 2.25 2.39 2.39C2.39 2.98 2.87 3.46 3.46 3.46C3.65 3.46 3.83 3.41 3.99 3.31L3.99 4.53C4 5.23 4.18 5.92 4.54 6.53C2.9 5.81 1.85 4.18 1.86 2.39ZM4.53 4.53L4.53 0.53L11.46 0.53L11.46 4.53C11.46 6.44 9.91 7.99 7.99 7.99C6.08 7.99 4.53 6.44 4.53 4.53ZM7.46 9.86L7.46 8.49C7.82 8.54 8.17 8.54 8.53 8.49L8.53 9.86C8.53 10.34 8.67 10.8 8.94 11.19L7.05 11.19C7.32 10.8 7.46 10.34 7.46 9.86ZM3.46 11.73L12.53 11.73L12.53 14.39L3.46 14.39L3.46 11.73ZM1.55 14.28C1.61 14.19 1.61 14.07 1.55 13.98L0.76 12.79L2.93 12.79L2.93 14.66C2.93 14.81 3.05 14.93 3.19 14.93L3.46 14.93L3.46 15.46L0.76 15.46L1.55 14.28Z" fill="#000000" fill-opacity="1.000000" fill-rule="nonzero"/>
</svg>
