<svg width="137.491455" height="53.819073" viewBox="0 0 137.491 53.8191" fill="none" xmlns="http://www.w3.org/2000/svg" xmlns:xlink="http://www.w3.org/1999/xlink">
	<desc>
			Created with Pixso.
	</desc>
	<defs/>
	<path id="Path" d="M100.76 53.81L72.06 53.81C71.51 53.81 71.07 53.37 71.07 52.81L71.07 49.69C71.07 49.14 71.51 48.69 72.06 48.69L100.76 48.69C101.31 48.69 101.75 49.14 101.75 49.69L101.75 52.81C101.75 53.37 101.31 53.81 100.76 53.81Z" fill="#BD7700" fill-opacity="1.000000" fill-rule="nonzero"/>
	<path id="Path" d="M84.32 21.69C84.6 21.97 84.71 22.3 84.71 22.75L84.71 31.66C84.71 32.99 84.43 34.22 83.88 35.28C83.33 36.33 82.51 37.17 81.52 37.73C80.47 38.34 79.32 38.62 78 38.62C76.68 38.62 75.52 38.34 74.48 37.73C73.43 37.11 72.66 36.33 72.12 35.28C71.57 34.22 71.29 33.05 71.29 31.66L71.29 22.75C71.29 22.3 71.46 21.97 71.73 21.69C72.01 21.41 72.39 21.25 72.83 21.25C73.21 21.25 73.54 21.41 73.87 21.69C74.15 21.97 74.31 22.36 74.31 22.75L74.31 31.66C74.31 32.44 74.48 33.16 74.81 33.77C75.14 34.39 75.58 34.83 76.18 35.16C76.73 35.5 77.39 35.67 78.05 35.67C78.77 35.67 79.37 35.5 80.03 35.16C80.64 34.83 81.13 34.39 81.46 33.77C81.85 33.16 82.01 32.44 82.01 31.66L82.01 22.75C82.01 22.3 82.12 21.97 82.4 21.69C82.62 21.41 82.95 21.3 83.39 21.3C83.83 21.3 84.1 21.41 84.32 21.69Z" fill="#F8AA00" fill-opacity="1.000000" fill-rule="nonzero"/>
	<path id="Path" d="M104.11 21.69C104.33 21.97 104.5 22.3 104.5 22.69L104.5 37C104.5 37.45 104.33 37.78 104.06 38.06C103.78 38.34 103.4 38.5 103.01 38.5C102.79 38.5 102.57 38.45 102.35 38.39C102.13 38.34 101.97 38.23 101.86 38.06L92.95 26.65L92.95 37.11C92.95 37.5 92.84 37.84 92.57 38.12C92.29 38.39 91.96 38.5 91.58 38.5C91.19 38.5 90.86 38.39 90.64 38.12C90.42 37.84 90.26 37.5 90.26 37.11L90.26 22.81C90.26 22.36 90.42 22.03 90.7 21.75C90.97 21.47 91.36 21.3 91.74 21.3C91.96 21.3 92.24 21.36 92.46 21.47C92.68 21.58 92.84 21.69 92.95 21.86L101.8 33.27L101.8 22.69C101.8 22.3 101.91 21.97 102.19 21.69C102.46 21.41 102.74 21.3 103.12 21.3C103.56 21.3 103.89 21.47 104.11 21.69Z" fill="#F8AA00" fill-opacity="1.000000" fill-rule="nonzero"/>
	<path id="Path" d="M120.5 36.06C120.77 36.33 120.94 36.67 120.94 37.11C120.94 37.5 120.77 37.84 120.5 38.12C120.22 38.39 119.84 38.5 119.45 38.5L111.59 38.5C111.15 38.5 110.82 38.34 110.55 38.06C110.27 37.78 110.11 37.39 110.11 37L110.11 22.81C110.11 22.36 110.27 22.03 110.55 21.75C110.82 21.47 111.21 21.3 111.65 21.3C112.03 21.3 112.42 21.47 112.69 21.75C112.97 22.03 113.13 22.42 113.13 22.81L113.13 35.61L119.45 35.61C119.84 35.61 120.22 35.78 120.5 36.06Z" fill="#F8AA00" fill-opacity="1.000000" fill-rule="nonzero"/>
	<path id="Shape" d="M135.01 22.08C135.78 22.58 136.33 23.25 136.83 24.09C137.27 24.92 137.49 25.87 137.49 26.87C137.49 27.87 137.27 28.76 136.83 29.6C136.39 30.43 135.78 31.1 135.01 31.6C134.24 32.1 133.47 32.33 132.65 32.33L128.42 32.33L128.42 36.95C128.42 37.39 128.31 37.73 128.03 38C127.76 38.28 127.43 38.39 126.99 38.39C126.6 38.39 126.27 38.23 126 37.95C125.72 37.67 125.61 37.28 125.61 36.89L125.61 22.81C125.61 22.36 125.78 22.03 126.05 21.75C126.33 21.47 126.71 21.3 127.1 21.3L132.65 21.3C133.47 21.3 134.3 21.58 135.01 22.08ZM133.58 29.15C133.86 28.87 134.13 28.54 134.3 28.15C134.46 27.76 134.57 27.32 134.57 26.81C134.57 26.37 134.46 25.92 134.3 25.48C134.13 25.03 133.86 24.7 133.58 24.48C133.31 24.2 132.98 24.09 132.65 24.09L128.42 24.09L128.42 29.54L132.65 29.54C132.98 29.54 133.25 29.43 133.58 29.15Z" fill="#F8AA00" fill-opacity="1.000000" fill-rule="nonzero"/>
	<path id="Path" d="M19.72 37.78L26.21 31.21L15.65 20.52C12.08 16.9 6.25 16.9 2.68 20.52C-0.9 24.14 -0.9 30.04 2.68 33.66L19.72 50.92C16.15 47.36 16.15 41.4 19.72 37.78Z" fill="#BD7700" fill-opacity="1.000000" fill-rule="nonzero"/>
	<path id="Path" d="M36.71 20.52L26.21 31.21L32.69 37.78C36.27 41.4 36.27 47.3 32.69 50.92L49.74 33.66C53.31 30.04 53.31 24.14 49.74 20.52C46.16 16.9 40.28 16.9 36.71 20.52Z" fill="#00375B" fill-opacity="1.000000" fill-rule="nonzero"/>
	<path id="Path" d="M32.69 37.78L26.21 31.21L19.72 37.78C16.15 41.4 16.15 47.3 19.72 50.92C23.29 54.54 29.12 54.54 32.69 50.92C36.27 47.36 36.27 41.4 32.69 37.78Z" fill="#F8AA00" fill-opacity="1.000000" fill-rule="nonzero"/>
	<path id="Path" d="M19.72 15.85L26.21 22.42L32.69 15.85C36.27 12.23 36.27 6.33 32.69 2.71C29.12 -0.91 23.29 -0.91 19.72 2.71C16.15 6.27 16.15 12.23 19.72 15.85Z" fill="#00375B" fill-opacity="1.000000" fill-rule="nonzero"/>
</svg>
