<svg width="127.757751" height="49.401367" viewBox="0 0 127.758 49.4014" fill="none" xmlns="http://www.w3.org/2000/svg" xmlns:xlink="http://www.w3.org/1999/xlink">
	<desc>
			Created with Pixso.
	</desc>
	<defs/>
	<path id="Fill-1" d="M78.35 19.96C78.59 20.21 78.71 20.54 78.71 20.95L78.71 29.11C78.71 30.35 78.45 31.46 77.92 32.42C77.4 33.38 76.66 34.13 75.71 34.67C74.77 35.21 73.69 35.49 72.47 35.49C71.25 35.49 70.16 35.21 69.21 34.67C68.25 34.13 67.51 33.38 66.99 32.42C66.46 31.46 66.2 30.35 66.2 29.11L66.2 20.95C66.2 20.56 66.33 20.23 66.61 19.97C66.88 19.7 67.22 19.57 67.64 19.57C68 19.57 68.32 19.7 68.59 19.97C68.86 20.23 69 20.56 69 20.95L69 29.11C69 29.83 69.15 30.47 69.47 31.03C69.78 31.6 70.21 32.03 70.74 32.33C71.28 32.63 71.85 32.78 72.47 32.78C73.11 32.78 73.72 32.63 74.28 32.33C74.85 32.03 75.3 31.6 75.64 31.03C75.97 30.47 76.14 29.83 76.14 29.11L76.14 20.95C76.14 20.54 76.26 20.21 76.48 19.96C76.71 19.7 77.01 19.57 77.41 19.57C77.8 19.57 78.11 19.7 78.35 19.96Z" fill="#EEA32D" fill-opacity="1.000000" fill-rule="evenodd"/>
	<path id="Fill-2" d="M96.75 19.96C96.98 20.2 97.09 20.5 97.09 20.86L97.09 34C97.09 34.39 96.96 34.71 96.69 34.98C96.43 35.24 96.1 35.37 95.71 35.37C95.5 35.37 95.3 35.34 95.09 35.27C94.89 35.2 94.74 35.11 94.65 34.99L86.38 24.49L86.38 34.11C86.38 34.47 86.26 34.77 86.03 35.01C85.8 35.25 85.49 35.37 85.12 35.37C84.76 35.37 84.46 35.25 84.24 35.01C84.01 34.77 83.9 34.47 83.9 34.11L83.9 20.97C83.9 20.58 84.03 20.25 84.29 19.99C84.56 19.73 84.88 19.6 85.27 19.6C85.5 19.6 85.72 19.64 85.94 19.73C86.16 19.82 86.32 19.94 86.42 20.09L94.63 30.55L94.63 20.86C94.63 20.5 94.75 20.2 94.98 19.96C95.21 19.72 95.51 19.6 95.87 19.6C96.23 19.6 96.53 19.72 96.75 19.96Z" fill="#EEA32D" fill-opacity="1.000000" fill-rule="evenodd"/>
	<path id="Fill-3" d="M111.96 33.11C112.22 33.36 112.35 33.67 112.35 34.07C112.35 34.44 112.22 34.75 111.96 35C111.7 35.25 111.37 35.37 110.98 35.37L103.65 35.37C103.26 35.37 102.93 35.24 102.67 34.98C102.41 34.71 102.27 34.39 102.27 34L102.27 20.97C102.27 20.58 102.41 20.25 102.68 19.99C102.95 19.73 103.3 19.6 103.72 19.6C104.09 19.6 104.42 19.73 104.69 19.99C104.96 20.25 105.09 20.58 105.09 20.97L105.09 32.74L110.98 32.74C111.37 32.74 111.7 32.86 111.96 33.11Z" fill="#EEA32D" fill-opacity="1.000000" fill-rule="evenodd"/>
	<mask id="mask0_65" mask-type="alpha" maskUnits="userSpaceOnUse" x="0.000000" y="0.000000" width="127.757751" height="49.401367">
		<path id="Vector" d="M0 0L127.75 0L127.75 49.4L0 49.4L0 0Z" fill="#FFFFFF" fill-opacity="1.000000" fill-rule="nonzero"/>
	</mask>
	<g mask="url(#mask0_65)">
		<path id="Fill-4" d="M124.11 26.81C124.39 26.57 124.61 26.26 124.79 25.87C124.96 25.49 125.05 25.09 125.05 24.67C125.05 24.25 124.96 23.84 124.79 23.46C124.61 23.08 124.39 22.77 124.11 22.54C123.83 22.3 123.55 22.19 123.27 22.19L119.34 22.19L119.34 27.17L123.27 27.17C123.55 27.17 123.83 27.05 124.11 26.81ZM125.45 20.28C126.14 20.74 126.7 21.36 127.12 22.13C127.54 22.91 127.75 23.75 127.75 24.67C127.75 25.57 127.54 26.41 127.12 27.19C126.7 27.97 126.14 28.59 125.45 29.05C124.76 29.51 124.03 29.74 123.27 29.74L119.34 29.74L119.34 34C119.34 34.4 119.22 34.73 118.98 34.99C118.74 35.25 118.43 35.37 118.03 35.37C117.66 35.37 117.35 35.24 117.11 34.98C116.87 34.71 116.75 34.39 116.75 34L116.75 20.97C116.75 20.58 116.88 20.25 117.14 19.99C117.41 19.73 117.73 19.6 118.13 19.6L123.27 19.6C124.03 19.6 124.76 19.83 125.45 20.28Z" fill="#EEA32D" fill-opacity="1.000000" fill-rule="evenodd"/>
	</g>
	<mask id="mask0_69" mask-type="alpha" maskUnits="userSpaceOnUse" x="0.000000" y="0.000000" width="127.757751" height="49.401367">
		<path id="Vector" d="M0 0L127.75 0L127.75 49.4L0 49.4L0 0Z" fill="#FFFFFF" fill-opacity="1.000000" fill-rule="nonzero"/>
	</mask>
	<g mask="url(#mask0_69)">
		<path id="Fill-6" d="M18.28 34.71L24.32 28.68L14.53 18.89C11.21 15.57 5.77 15.57 2.45 18.89C-0.87 22.21 -0.87 27.65 2.45 30.97L18.28 46.79C14.96 43.47 14.96 38.03 18.28 34.71Z" fill="#AA6A21" fill-opacity="1.000000" fill-rule="evenodd"/>
	</g>
	<mask id="mask0_73" mask-type="alpha" maskUnits="userSpaceOnUse" x="0.000000" y="0.000000" width="127.757751" height="49.401367">
		<path id="Vector" d="M0 0L127.75 0L127.75 49.4L0 49.4L0 0Z" fill="#FFFFFF" fill-opacity="1.000000" fill-rule="nonzero"/>
	</mask>
	<g mask="url(#mask0_73)">
		<path id="Fill-7" d="M34.11 18.89L24.32 28.68L30.36 34.71C33.68 38.03 33.68 43.47 30.36 46.79L46.18 30.97C49.51 27.65 49.51 22.21 46.18 18.89C42.86 15.57 37.43 15.57 34.11 18.89Z" fill="#FFFFFE" fill-opacity="1.000000" fill-rule="evenodd"/>
	</g>
	<mask id="mask0_77" mask-type="alpha" maskUnits="userSpaceOnUse" x="0.000000" y="0.000000" width="127.757751" height="49.401367">
		<path id="Vector" d="M0 0L127.75 0L127.75 49.4L0 49.4L0 0Z" fill="#FFFFFF" fill-opacity="1.000000" fill-rule="nonzero"/>
	</mask>
	<g mask="url(#mask0_77)">
		<path id="Fill-8" d="M30.36 34.71L24.32 28.68L18.28 34.71C14.96 38.03 14.96 43.47 18.28 46.79C21.6 50.11 27.03 50.11 30.36 46.79C33.68 43.47 33.68 38.03 30.36 34.71Z" fill="#EEA32D" fill-opacity="1.000000" fill-rule="evenodd"/>
	</g>
	<mask id="mask0_81" mask-type="alpha" maskUnits="userSpaceOnUse" x="0.000000" y="0.000000" width="127.757751" height="49.401367">
		<path id="Vector" d="M0 0L127.75 0L127.75 49.4L0 49.4L0 0Z" fill="#FFFFFF" fill-opacity="1.000000" fill-rule="nonzero"/>
	</mask>
	<g mask="url(#mask0_81)">
		<path id="Fill-9" d="M18.28 14.56L24.32 20.59L30.36 14.56C33.68 11.24 33.68 5.81 30.36 2.49C27.03 -0.84 21.6 -0.84 18.28 2.49C14.96 5.81 14.96 11.24 18.28 14.56Z" fill="#FFFFFE" fill-opacity="1.000000" fill-rule="evenodd"/>
	</g>
	<mask id="mask0_85" mask-type="alpha" maskUnits="userSpaceOnUse" x="0.000000" y="0.000000" width="127.757751" height="49.401367">
		<path id="Vector" d="M0 0L127.75 0L127.75 49.4L0 49.4L0 0Z" fill="#FFFFFF" fill-opacity="1.000000" fill-rule="nonzero"/>
	</mask>
	<g mask="url(#mask0_85)">
		<path id="Fill-10" d="M92.89 44.71L68.56 44.71C67.26 44.71 66.2 45.76 66.2 47.07C66.2 48.37 67.26 49.43 68.56 49.43C68.58 49.43 68.59 49.43 68.6 49.43L92.85 49.43C92.86 49.43 92.87 49.43 92.89 49.43C94.19 49.43 95.25 48.37 95.25 47.07C95.25 45.76 94.19 44.71 92.89 44.71Z" fill="#AA6A21" fill-opacity="1.000000" fill-rule="evenodd"/>
	</g>
</svg>
