<svg width="87.000000" height="14.000000" viewBox="0 0 87 14" fill="none" xmlns="http://www.w3.org/2000/svg" xmlns:xlink="http://www.w3.org/1999/xlink">
	<desc>
			Created with Pixso.
	</desc>
	<defs/>
	<path id="Vector" d="M7.49 11.72L3.86 13.86C3.7 13.96 3.53 14.01 3.36 13.99C3.18 13.98 3.03 13.92 2.9 13.82C2.76 13.72 2.66 13.6 2.59 13.45C2.52 13.3 2.5 13.13 2.55 12.94L3.51 8.9L0.29 6.18C0.14 6.05 0.05 5.91 0.02 5.74C-0.02 5.58 -0.01 5.42 0.05 5.26C0.11 5.1 0.19 4.98 0.31 4.87C0.43 4.77 0.59 4.71 0.79 4.68L5.04 4.32L6.68 0.51C6.76 0.34 6.87 0.21 7.02 0.12C7.18 0.04 7.33 0 7.49 0C7.65 0 7.81 0.04 7.97 0.12C8.12 0.21 8.23 0.34 8.3 0.51L9.95 4.32L14.2 4.68C14.4 4.71 14.56 4.77 14.68 4.87C14.79 4.97 14.88 5.1 14.94 5.26C15 5.42 15.01 5.58 14.97 5.74C14.94 5.91 14.85 6.05 14.7 6.18L11.48 8.9L12.44 12.94C12.49 13.13 12.47 13.3 12.4 13.45C12.33 13.6 12.23 13.72 12.09 13.82C11.96 13.92 11.81 13.98 11.63 13.99C11.46 14.01 11.29 13.96 11.13 13.86L7.49 11.72Z" fill="#FFFFFF" fill-opacity="1.000000" fill-rule="nonzero"/>
	<path id="Vector" d="M25.49 11.72L21.86 13.86C21.7 13.96 21.53 14.01 21.36 13.99C21.18 13.98 21.03 13.92 20.9 13.82C20.76 13.72 20.66 13.6 20.59 13.45C20.52 13.3 20.5 13.13 20.55 12.94L21.51 8.9L18.29 6.18C18.14 6.05 18.05 5.91 18.02 5.74C17.98 5.58 17.99 5.42 18.05 5.26C18.11 5.1 18.19 4.98 18.31 4.87C18.43 4.77 18.59 4.71 18.79 4.68L23.04 4.32L24.68 0.51C24.76 0.34 24.87 0.21 25.02 0.12C25.18 0.04 25.33 0 25.49 0C25.65 0 25.81 0.04 25.97 0.12C26.12 0.21 26.23 0.34 26.31 0.51L27.95 4.32L32.2 4.68C32.4 4.71 32.56 4.77 32.68 4.87C32.79 4.97 32.88 5.1 32.94 5.26C33 5.42 33.01 5.58 32.97 5.74C32.94 5.91 32.85 6.05 32.7 6.18L29.48 8.9L30.44 12.94C30.49 13.13 30.47 13.3 30.4 13.45C30.33 13.6 30.23 13.72 30.09 13.82C29.96 13.92 29.81 13.98 29.63 13.99C29.46 14.01 29.29 13.96 29.13 13.86L25.49 11.72Z" fill="#FFFFFF" fill-opacity="1.000000" fill-rule="nonzero"/>
	<path id="Vector" d="M43.49 11.72L39.86 13.86C39.7 13.96 39.53 14.01 39.36 13.99C39.18 13.98 39.03 13.92 38.9 13.82C38.76 13.72 38.66 13.6 38.59 13.45C38.52 13.3 38.5 13.13 38.55 12.94L39.51 8.9L36.29 6.18C36.14 6.05 36.05 5.91 36.02 5.74C35.98 5.58 35.99 5.42 36.05 5.26C36.11 5.1 36.19 4.98 36.31 4.87C36.43 4.77 36.59 4.71 36.79 4.68L41.04 4.32L42.68 0.51C42.76 0.34 42.87 0.21 43.02 0.12C43.18 0.04 43.33 0 43.49 0C43.65 0 43.81 0.04 43.97 0.12C44.12 0.21 44.23 0.34 44.31 0.51L45.95 4.32L50.2 4.68C50.4 4.71 50.56 4.77 50.68 4.87C50.79 4.97 50.88 5.1 50.94 5.26C51 5.42 51.01 5.58 50.97 5.74C50.94 5.91 50.85 6.05 50.7 6.18L47.48 8.9L48.44 12.94C48.49 13.13 48.47 13.3 48.4 13.45C48.33 13.6 48.23 13.72 48.09 13.82C47.96 13.92 47.81 13.98 47.63 13.99C47.46 14.01 47.29 13.96 47.13 13.86L43.49 11.72Z" fill="#FFFFFF" fill-opacity="1.000000" fill-rule="nonzero"/>
	<path id="Vector" d="M61.49 11.72L57.86 13.86C57.7 13.96 57.53 14.01 57.36 13.99C57.18 13.98 57.03 13.92 56.9 13.82C56.76 13.72 56.66 13.6 56.59 13.45C56.52 13.3 56.5 13.13 56.55 12.94L57.51 8.9L54.29 6.18C54.14 6.05 54.05 5.91 54.02 5.74C53.98 5.58 53.99 5.42 54.05 5.26C54.11 5.1 54.19 4.98 54.31 4.87C54.43 4.77 54.59 4.71 54.79 4.68L59.04 4.32L60.68 0.51C60.76 0.34 60.87 0.21 61.02 0.12C61.18 0.04 61.33 0 61.49 0C61.65 0 61.81 0.04 61.97 0.12C62.12 0.21 62.23 0.34 62.31 0.51L63.95 4.32L68.2 4.68C68.4 4.71 68.56 4.77 68.68 4.87C68.79 4.97 68.88 5.1 68.94 5.26C69 5.42 69.01 5.58 68.97 5.74C68.94 5.91 68.85 6.05 68.7 6.18L65.48 8.9L66.44 12.94C66.49 13.13 66.47 13.3 66.4 13.45C66.33 13.6 66.23 13.72 66.09 13.82C65.96 13.92 65.81 13.98 65.63 13.99C65.46 14.01 65.29 13.96 65.13 13.86L61.49 11.72Z" fill="#FFFFFF" fill-opacity="1.000000" fill-rule="nonzero"/>
	<path id="Vector" d="M79.49 11.72L75.86 13.86C75.7 13.96 75.53 14.01 75.36 13.99C75.18 13.98 75.03 13.92 74.9 13.82C74.76 13.72 74.66 13.6 74.59 13.45C74.52 13.3 74.5 13.13 74.55 12.94L75.51 8.9L72.29 6.18C72.14 6.05 72.05 5.91 72.02 5.74C71.98 5.58 71.99 5.42 72.05 5.26C72.11 5.1 72.19 4.98 72.31 4.87C72.43 4.77 72.59 4.71 72.79 4.68L77.04 4.32L78.68 0.51C78.76 0.34 78.87 0.21 79.02 0.12C79.18 0.04 79.33 0 79.49 0C79.65 0 79.81 0.04 79.97 0.12C80.12 0.21 80.23 0.34 80.31 0.51L81.95 4.32L86.2 4.68C86.4 4.71 86.56 4.77 86.68 4.87C86.79 4.97 86.88 5.1 86.94 5.26C87 5.42 87.01 5.58 86.97 5.74C86.94 5.91 86.85 6.05 86.7 6.18L83.48 8.9L84.44 12.94C84.49 13.13 84.47 13.3 84.4 13.45C84.33 13.6 84.23 13.72 84.09 13.82C83.96 13.92 83.81 13.98 83.63 13.99C83.46 14.01 83.29 13.96 83.13 13.86L79.49 11.72Z" fill="#FFFFFF" fill-opacity="1.000000" fill-rule="nonzero"/>
</svg>
