<?xml version="1.0" encoding="utf-8"?><svg viewBox="0 0 502.66 502.66" xmlns="http://www.w3.org/2000/svg" xmlns:xlink="http://www.w3.org/1999/xlink"><style>:root>svg{display:none}:root>svg:target{display:block}</style><svg viewBox="0 0 12 24" id="arrow-btn--light" xmlns="http://www.w3.org/2000/svg"><defs><clipPath id="aa"><rect rx="0" width="11" height="23" transform="translate(.5 .5)" fill-opacity="0"/></clipPath></defs><rect rx="0" width="11" height="23" transform="translate(.5 .5)"/><g clip-path="url(#aa)"><path d="m2.45 6.58 1.06-1.06 5.78 5.77c.09.09.16.2.21.33.05.12.08.25.08.38s-.03.26-.08.38-.12.23-.21.33l-5.78 5.78-1.06-1.06L7.87 12 2.45 6.58Z"/></g></svg><svg viewBox="0 0 7.708 4.561" id="arrow-dropdown" xmlns="http://www.w3.org/2000/svg"><path d="M3.85 4.56 7.7.7 7 0 3.85 3.14.7 0 0 .7l3.85 3.86Z" fill-rule="evenodd"/></svg><svg viewBox="0 0 16 16" id="header-top-icon-1" xmlns="http://www.w3.org/2000/svg"><path d="M.03 15.85c.04.09.13.15.23.14h3.47c.15 0 .26-.11.26-.26v-.8h8v.8c0 .15.12.26.27.26h3.47c.1 0 .19-.05.23-.14.05-.08.04-.19-.01-.27l-.97-1.45.97-1.45a.28.28 0 0 0 .01-.28.261.261 0 0 0-.23-.14h-2.67v-.8c0-.15-.12-.27-.27-.27H9.63c-.36-.35-.57-.83-.57-1.33V8.38c.69-.19 1.32-.57 1.82-1.09a5.033 5.033 0 0 0 3.78-4.9v-.53c0-.73-.72-1.33-1.6-1.33-.38-.01-.76.11-1.07.34V.26c0-.15-.11-.26-.26-.26H4.26a.26.26 0 0 0-.27.26v.61C3.69.64 3.31.52 2.93.53c-.88 0-1.6.6-1.6 1.33v.53a5.033 5.033 0 0 0 3.78 4.9c.5.52 1.13.9 1.82 1.09v1.48c0 .5-.21.98-.57 1.33H3.19c-.14 0-.26.12-.26.27v.8H.26c-.1 0-.19.06-.23.14a.28.28 0 0 0 .01.28l.97 1.45-.97 1.45c-.05.08-.06.19-.01.27Zm15.2-3.06-.79 1.19c-.06.09-.06.21 0 .3l.79 1.18h-2.7v-.53h.26c.15 0 .27-.12.27-.27v-1.87h2.17ZM13.06 1.06c.59 0 1.07.36 1.07.8v.53a4.491 4.491 0 0 1-2.68 4.14c.36-.61.54-1.3.54-2V3.31c.17.1.35.15.54.15.59 0 1.06-.48 1.06-1.07 0-.14-.11-.26-.26-.26-.15 0-.27.12-.27.26a.536.536 0 1 1-1.07 0v-.53c0-.44.48-.8 1.07-.8ZM1.86 2.39v-.53c0-.44.48-.8 1.07-.8.59 0 1.06.36 1.06.8v.53a.53.53 0 1 1-1.06 0c0-.14-.12-.26-.27-.26-.15 0-.27.12-.27.26 0 .59.48 1.07 1.07 1.07.19 0 .37-.05.53-.15v1.22c.01.7.19 1.39.55 2a4.491 4.491 0 0 1-2.68-4.14Zm2.67 2.14v-4h6.93v4c0 1.91-1.55 3.46-3.47 3.46-1.91 0-3.46-1.55-3.46-3.46Zm2.93 5.33V8.49c.36.05.71.05 1.07 0v1.37c0 .48.14.94.41 1.33H7.05c.27-.39.41-.85.41-1.33Zm-4 1.87h9.07v2.66H3.46v-2.66Zm-1.91 2.55c.06-.09.06-.21 0-.3l-.79-1.19h2.17v1.87c0 .15.12.27.26.27h.27v.53H.76l.79-1.18Z"/></svg><svg viewBox="0 0 16 16" id="header-top-icon-2" xmlns="http://www.w3.org/2000/svg"><defs><clipPath id="da"><rect rx="0" width="15" height="15" transform="translate(.5 .5)" fill-opacity="0"/></clipPath></defs><rect rx="0" width="15" height="15" transform="translate(.5 .5)"/><g clip-path="url(#da)"><path d="M14.2 6.92c.48-.37.8-.94.8-1.59a2 2 0 1 0-3.21 1.59c-.05.02-.1.04-.15.07-.16.08-.23.29-.14.45.08.16.28.23.45.14.31-.16.68-.25 1.05-.25 1.28 0 2.33 1.05 2.33 2.33V11c0 .55-.45 1-1 1h-1.69c-.18 0-.33.14-.33.33 0 .18.15.33.33.33h1.69c.92 0 1.67-.75 1.67-1.66V9.66c0-1.22-.74-2.28-1.8-2.74Zm-2.54-1.59c0-.74.6-1.33 1.34-1.33a1.33 1.33 0 1 1 0 2.66c-.74 0-1.34-.6-1.34-1.33ZM4.49 7.44c.09-.16.02-.37-.14-.45-.05-.03-.1-.05-.15-.07.48-.36.8-.94.8-1.59a2 2 0 1 0-3.21 1.59A2.984 2.984 0 0 0 0 9.66V11c0 .91.74 1.66 1.66 1.66h1.69c.18 0 .33-.15.33-.33 0-.19-.15-.33-.33-.33H1.66c-.55 0-1-.45-1-1V9.66A2.34 2.34 0 0 1 3 7.33c.36 0 .73.09 1.04.25.17.09.37.02.45-.14ZM1.66 5.33C1.66 4.59 2.26 4 3 4a1.33 1.33 0 1 1 0 2.66c-.74 0-1.34-.6-1.34-1.33Z"/><path d="M9.32 6.58c.61-.42 1.01-1.12 1.01-1.92 0-1.28-1.05-2.33-2.33-2.33a2.34 2.34 0 0 0-2.34 2.33c0 .8.4 1.5 1.01 1.92A3.663 3.663 0 0 0 4.33 10v2c0 .91.75 1.66 1.67 1.66h4c.91 0 1.66-.75 1.66-1.66v-2c0-1.56-.97-2.89-2.34-3.42ZM6.33 4.66A1.664 1.664 0 1 1 8 6.33c-.92 0-1.67-.75-1.67-1.67ZM11 12c0 .55-.45 1-1 1H6c-.56 0-1-.45-1-1v-2c0-1.66 1.34-3 3-3 1.65 0 3 1.34 3 3v2Z"/></g></svg><svg viewBox="0 0 16 16" id="header-top-icon-3" xmlns="http://www.w3.org/2000/svg"><defs><clipPath id="ea"><rect rx="0" width="15" height="15" transform="translate(.5 .5)" fill-opacity="0"/></clipPath></defs><rect rx="0" width="15" height="15" transform="translate(.5 .5)"/><g clip-path="url(#ea)"><path d="M8 0C4.74 0 2.08 2.65 2.08 5.91c0 1.07.49 2.22.51 2.27.15.37.46.94.68 1.28l4.05 6.14c.17.25.41.4.68.4.26 0 .5-.15.67-.4l4.05-6.14c.22-.34.53-.91.68-1.28.02-.05.51-1.2.51-2.27C13.91 2.65 11.25 0 8 0Zm4.76 7.91c-.14.33-.42.86-.62 1.17l-4.05 6.14c-.08.12-.11.12-.19 0L3.85 9.08c-.2-.31-.48-.84-.62-1.17-.01-.01-.45-1.08-.45-2C2.78 3.03 5.12.69 8 .69c2.87 0 5.21 2.34 5.21 5.22 0 .93-.44 1.99-.45 2Z"/><path d="M8 2.78c-1.73 0-3.13 1.4-3.13 3.13a3.126 3.126 0 0 0 6.25 0c0-1.73-1.4-3.13-3.12-3.13Zm0 5.56a2.435 2.435 0 1 1-.01-4.87A2.435 2.435 0 0 1 8 8.34Z"/></g></svg><svg viewBox="0 0 502.664 502.664" xml:space="preserve" id="icon" xmlns="http://www.w3.org/2000/svg"><path d="M153.821 358.226 0 274.337v-46.463l153.821-83.414v54.574L46.636 250.523l107.185 53.431v54.272zm26.273 29.358L282.103 115.08h32.227L212.084 387.584h-31.99zm168.749-29.358v-54.272l107.164-52.999-107.164-52.59v-53.927l153.821 83.522v46.183l-153.821 84.083z"/></svg><svg viewBox="0 0 137.491 53.819" id="logo" xmlns="http://www.w3.org/2000/svg"><path d="M100.76 53.81h-28.7c-.55 0-.99-.44-.99-1v-3.12c0-.55.44-1 .99-1h28.7c.55 0 .99.45.99 1v3.12c0 .56-.44 1-.99 1ZM84.32 21.69c.28.28.39.61.39 1.06v8.91c0 1.33-.28 2.56-.83 3.62a5.995 5.995 0 0 1-2.36 2.45c-1.05.61-2.2.89-3.52.89-1.32 0-2.48-.28-3.52-.89-1.05-.62-1.82-1.4-2.36-2.45-.55-1.06-.83-2.23-.83-3.62v-8.91c0-.45.17-.78.44-1.06.28-.28.66-.44 1.1-.44.38 0 .71.16 1.04.44.28.28.44.67.44 1.06v8.91c0 .78.17 1.5.5 2.11.33.62.77 1.06 1.37 1.39.55.34 1.21.51 1.87.51.72 0 1.32-.17 1.98-.51.61-.33 1.1-.77 1.43-1.39.39-.61.55-1.33.55-2.11v-8.91c0-.45.11-.78.39-1.06.22-.28.55-.39.99-.39.44 0 .71.11.93.39Zm19.79 0c.22.28.39.61.39 1V37c0 .45-.17.78-.44 1.06-.28.28-.66.44-1.05.44-.22 0-.44-.05-.66-.11a.752.752 0 0 1-.49-.33l-8.91-11.41v10.46c0 .39-.11.73-.38 1.01-.28.27-.61.38-.99.38-.39 0-.72-.11-.94-.38-.22-.28-.38-.62-.38-1.01v-14.3c0-.45.16-.78.44-1.06.27-.28.66-.45 1.04-.45.22 0 .5.06.72.17.22.11.38.22.49.39l8.85 11.41V22.69c0-.39.11-.72.39-1 .27-.28.55-.39.93-.39.44 0 .77.17.99.39Zm16.39 14.37c.27.27.44.61.44 1.05 0 .39-.17.73-.44 1.01-.28.27-.66.38-1.05.38h-7.86c-.44 0-.77-.16-1.04-.44-.28-.28-.44-.67-.44-1.06V22.81c0-.45.16-.78.44-1.06.27-.28.66-.45 1.1-.45.38 0 .77.17 1.04.45.28.28.44.67.44 1.06v12.8h6.32c.39 0 .77.17 1.05.45Zm14.51-13.98c.77.5 1.32 1.17 1.82 2.01.44.83.66 1.78.66 2.78 0 1-.22 1.89-.66 2.73-.44.83-1.05 1.5-1.82 2s-1.54.73-2.36.73h-4.23v4.62c0 .44-.11.78-.39 1.05-.27.28-.6.39-1.04.39-.39 0-.72-.16-.99-.44-.28-.28-.39-.67-.39-1.06V22.81c0-.45.17-.78.44-1.06.28-.28.66-.45 1.05-.45h5.55c.82 0 1.65.28 2.36.78Zm-1.43 7.07c.28-.28.55-.61.72-1 .16-.39.27-.83.27-1.34 0-.44-.11-.89-.27-1.33-.17-.45-.44-.78-.72-1-.27-.28-.6-.39-.93-.39h-4.23v5.45h4.23c.33 0 .6-.11.93-.39ZM19.72 37.78l6.49-6.57-10.56-10.69a9.102 9.102 0 0 0-12.97 0c-3.58 3.62-3.58 9.52 0 13.14l17.04 17.26c-3.57-3.56-3.57-9.52 0-13.14ZM36.71 20.52l-10.5 10.69 6.48 6.57c3.58 3.62 3.58 9.52 0 13.14l17.05-17.26c3.57-3.62 3.57-9.52 0-13.14-3.58-3.62-9.46-3.62-13.03 0Z"/><path d="m32.69 37.78-6.48-6.57-6.49 6.57c-3.57 3.62-3.57 9.52 0 13.14a9.102 9.102 0 0 0 12.97 0c3.58-3.56 3.58-9.52 0-13.14ZM19.72 15.85l6.49 6.57 6.48-6.57c3.58-3.62 3.58-9.52 0-13.14a9.102 9.102 0 0 0-12.97 0c-3.57 3.56-3.57 9.52 0 13.14Z"/></svg><svg viewBox="0 0 127.758 49.401" id="logo-footer" xmlns="http://www.w3.org/2000/svg"><path d="M78.35 19.96c.24.25.36.58.36.99v8.16c0 1.24-.26 2.35-.79 3.31-.52.96-1.26 1.71-2.21 2.25-.94.54-2.02.82-3.24.82-1.22 0-2.31-.28-3.26-.82a5.59 5.59 0 0 1-2.22-2.25c-.53-.96-.79-2.07-.79-3.31v-8.16c0-.39.13-.72.41-.98.27-.27.61-.4 1.03-.4.36 0 .68.13.95.4.27.26.41.59.41.98v8.16c0 .72.15 1.36.47 1.92.31.57.74 1 1.27 1.3.54.3 1.11.45 1.73.45.64 0 1.25-.15 1.81-.45.57-.3 1.02-.73 1.36-1.3.33-.56.5-1.2.5-1.92v-8.16c0-.41.12-.74.34-.99.23-.26.53-.39.93-.39.39 0 .7.13.94.39Zm18.4 0c.23.24.34.54.34.9V34c0 .39-.13.71-.4.98-.26.26-.59.39-.98.39-.21 0-.41-.03-.62-.1-.2-.07-.35-.16-.44-.28l-8.27-10.5v9.62c0 .36-.12.66-.35.9-.23.24-.54.36-.91.36-.36 0-.66-.12-.88-.36-.23-.24-.34-.54-.34-.9V20.97c0-.39.13-.72.39-.98.27-.26.59-.39.98-.39.23 0 .45.04.67.13.22.09.38.21.48.36l8.21 10.46v-9.69c0-.36.12-.66.35-.9.23-.24.53-.36.89-.36s.66.12.88.36Zm15.21 13.15c.26.25.39.56.39.96 0 .37-.13.68-.39.93s-.59.37-.98.37h-7.33c-.39 0-.72-.13-.98-.39-.26-.27-.4-.59-.4-.98V20.97c0-.39.14-.72.41-.98.27-.26.62-.39 1.04-.39.37 0 .7.13.97.39s.4.59.4.98v11.77h5.89c.39 0 .72.12.98.37Z" fill-rule="evenodd"/><mask id="ga" mask-type="alpha" maskUnits="userSpaceOnUse" x="0" y="0" width="127.758" height="49.401"><path d="M0 0h127.75v49.4H0V0Z"/></mask><g mask="url(#ga)"><path d="M124.11 26.81c.28-.24.5-.55.68-.94a2.91 2.91 0 0 0 0-2.41c-.18-.38-.4-.69-.68-.92-.28-.24-.56-.35-.84-.35h-3.93v4.98h3.93c.28 0 .56-.12.84-.36Zm1.34-6.53c.69.46 1.25 1.08 1.67 1.85.42.78.63 1.62.63 2.54 0 .9-.21 1.74-.63 2.52-.42.78-.98 1.4-1.67 1.86-.69.46-1.42.69-2.18.69h-3.93V34c0 .4-.12.73-.36.99s-.55.38-.95.38c-.37 0-.68-.13-.92-.39-.24-.27-.36-.59-.36-.98V20.97c0-.39.13-.72.39-.98.27-.26.59-.39.99-.39h5.14c.76 0 1.49.23 2.18.68Z" fill-rule="evenodd"/></g><mask id="gb" mask-type="alpha" maskUnits="userSpaceOnUse" x="0" y="0" width="127.758" height="49.401"><path d="M0 0h127.75v49.4H0V0Z"/></mask><g mask="url(#gb)"><path d="m18.28 34.71 6.04-6.03-9.79-9.79c-3.32-3.32-8.76-3.32-12.08 0-3.32 3.32-3.32 8.76 0 12.08l15.83 15.82c-3.32-3.32-3.32-8.76 0-12.08Z" fill-rule="evenodd"/></g><mask id="gc" mask-type="alpha" maskUnits="userSpaceOnUse" x="0" y="0" width="127.758" height="49.401"><path d="M0 0h127.75v49.4H0V0Z"/></mask><g mask="url(#gc)"><path d="m34.11 18.89-9.79 9.79 6.04 6.03c3.32 3.32 3.32 8.76 0 12.08l15.82-15.82c3.33-3.32 3.33-8.76 0-12.08-3.32-3.32-8.75-3.32-12.07 0Z" fill-rule="evenodd"/></g><mask id="gd" mask-type="alpha" maskUnits="userSpaceOnUse" x="0" y="0" width="127.758" height="49.401"><path d="M0 0h127.75v49.4H0V0Z"/></mask><g mask="url(#gd)"><path d="m30.36 34.71-6.04-6.03-6.04 6.03c-3.32 3.32-3.32 8.76 0 12.08 3.32 3.32 8.75 3.32 12.08 0 3.32-3.32 3.32-8.76 0-12.08Z" fill-rule="evenodd"/></g><mask id="ge" mask-type="alpha" maskUnits="userSpaceOnUse" x="0" y="0" width="127.758" height="49.401"><path d="M0 0h127.75v49.4H0V0Z"/></mask><g mask="url(#ge)"><path d="m18.28 14.56 6.04 6.03 6.04-6.03c3.32-3.32 3.32-8.75 0-12.07-3.33-3.33-8.76-3.33-12.08 0-3.32 3.32-3.32 8.75 0 12.07Z" fill-rule="evenodd"/></g><mask id="gf" mask-type="alpha" maskUnits="userSpaceOnUse" x="0" y="0" width="127.758" height="49.401"><path d="M0 0h127.75v49.4H0V0Z"/></mask><g mask="url(#gf)"><path d="M92.89 44.71H68.56c-1.3 0-2.36 1.05-2.36 2.36 0 1.3 1.06 2.36 2.36 2.36h24.33c1.3 0 2.36-1.06 2.36-2.36 0-1.31-1.06-2.36-2.36-2.36Z" fill-rule="evenodd"/></g></svg><svg viewBox="0 0 74 74" id="play" xmlns="http://www.w3.org/2000/svg"><circle cx="37" cy="37" r="34"/><path d="M27.484 55.3c-1.334.754-2.984-.21-2.984-1.741V21.441c0-1.531 1.65-2.494 2.984-1.741l28.433 16.059c1.355.765 1.355 2.717 0 3.482l-28.433 16.06Z" fill-rule="evenodd"/></svg><svg viewBox="0 0 87 14" id="stars" xmlns="http://www.w3.org/2000/svg"><path d="m7.49 11.72-3.63 2.14c-.16.1-.33.15-.5.13a.807.807 0 0 1-.46-.17.922.922 0 0 1-.31-.37.732.732 0 0 1-.04-.51l.96-4.04L.29 6.18a.743.743 0 0 1-.27-.44.791.791 0 0 1 .03-.48c.06-.16.14-.28.26-.39.12-.1.28-.16.48-.19l4.25-.36L6.68.51c.08-.17.19-.3.34-.39.16-.08.31-.12.47-.12.16 0 .32.04.48.12.15.09.26.22.33.39l1.65 3.81 4.25.36c.2.03.36.09.48.19.11.1.2.23.26.39s.07.32.03.48c-.03.17-.12.31-.27.44L11.48 8.9l.96 4.04c.05.19.03.36-.04.51-.07.15-.17.27-.31.37-.13.1-.28.16-.46.17a.771.771 0 0 1-.5-.13l-3.64-2.14Zm18 0-3.63 2.14c-.16.1-.33.15-.5.13a.807.807 0 0 1-.46-.17.922.922 0 0 1-.31-.37.732.732 0 0 1-.04-.51l.96-4.04-3.22-2.72a.743.743 0 0 1-.27-.44.791.791 0 0 1 .03-.48c.06-.16.14-.28.26-.39.12-.1.28-.16.48-.19l4.25-.36L24.68.51c.08-.17.19-.3.34-.39.16-.08.31-.12.47-.12.16 0 .32.04.48.12.15.09.26.22.34.39l1.64 3.81 4.25.36c.2.03.36.09.48.19.11.1.2.23.26.39s.07.32.03.48c-.03.17-.12.31-.27.44L29.48 8.9l.96 4.04c.05.19.03.36-.04.51-.07.15-.17.27-.31.37-.13.1-.28.16-.46.17a.771.771 0 0 1-.5-.13l-3.64-2.14Zm18 0-3.63 2.14c-.16.1-.33.15-.5.13a.807.807 0 0 1-.46-.17.922.922 0 0 1-.31-.37.732.732 0 0 1-.04-.51l.96-4.04-3.22-2.72a.743.743 0 0 1-.27-.44.791.791 0 0 1 .03-.48c.06-.16.14-.28.26-.39.12-.1.28-.16.48-.19l4.25-.36L42.68.51c.08-.17.19-.3.34-.39.16-.08.31-.12.47-.12.16 0 .32.04.48.12.15.09.26.22.34.39l1.64 3.81 4.25.36c.2.03.36.09.48.19.11.1.2.23.26.39s.07.32.03.48c-.03.17-.12.31-.27.44L47.48 8.9l.96 4.04c.05.19.03.36-.04.51-.07.15-.17.27-.31.37-.13.1-.28.16-.46.17a.771.771 0 0 1-.5-.13l-3.64-2.14Zm18 0-3.63 2.14c-.16.1-.33.15-.5.13a.807.807 0 0 1-.46-.17.922.922 0 0 1-.31-.37.732.732 0 0 1-.04-.51l.96-4.04-3.22-2.72a.743.743 0 0 1-.27-.44.791.791 0 0 1 .03-.48c.06-.16.14-.28.26-.39.12-.1.28-.16.48-.19l4.25-.36L60.68.51c.08-.17.19-.3.34-.39.16-.08.31-.12.47-.12.16 0 .32.04.48.12.15.09.26.22.34.39l1.64 3.81 4.25.36c.2.03.36.09.48.19.11.1.2.23.26.39s.07.32.03.48c-.03.17-.12.31-.27.44L65.48 8.9l.96 4.04c.05.19.03.36-.04.51-.07.15-.17.27-.31.37-.13.1-.28.16-.46.17a.771.771 0 0 1-.5-.13l-3.64-2.14Zm18 0-3.63 2.14c-.16.1-.33.15-.5.13a.807.807 0 0 1-.46-.17.922.922 0 0 1-.31-.37.732.732 0 0 1-.04-.51l.96-4.04-3.22-2.72a.743.743 0 0 1-.27-.44.791.791 0 0 1 .03-.48c.06-.16.14-.28.26-.39.12-.1.28-.16.48-.19l4.25-.36L78.68.51c.08-.17.19-.3.34-.39.16-.08.31-.12.47-.12.16 0 .32.04.48.12.15.09.26.22.34.39l1.64 3.81 4.25.36c.2.03.36.09.48.19.11.1.2.23.26.39s.07.32.03.48c-.03.17-.12.31-.27.44L83.48 8.9l.96 4.04c.05.19.03.36-.04.51-.07.15-.17.27-.31.37-.13.1-.28.16-.46.17a.771.771 0 0 1-.5-.13l-3.64-2.14Z"/></svg></svg>